<mxfile host="app.diagrams.net" modified="2023-09-26T11:50:32.083Z" agent="Mozilla/5.0 (Macintosh; Intel Mac OS X 10_15_7) AppleWebKit/605.1.15 (KHTML, like Gecko) Version/16.6 Safari/605.1.15" etag="MMClDaauRN-QqkOQHRa2" version="21.8.2" type="device">
  <diagram name="Page-1" id="p50rXdhpppsO5LLiYBkp">
    <mxGraphModel dx="2537" dy="2322" grid="1" gridSize="10" guides="1" tooltips="1" connect="1" arrows="1" fold="1" page="1" pageScale="1" pageWidth="827" pageHeight="1169" math="0" shadow="0">
      <root>
        <mxCell id="0" />
        <mxCell id="1" parent="0" />
        <mxCell id="mVk74JgCXZxDBSlldJFi-126" value="" style="rounded=0;whiteSpace=wrap;html=1;shadow=1;glass=0;align=center;verticalAlign=middle;fontFamily=Helvetica;fontSize=12;textOpacity=50;fillColor=#FFE599;strokeColor=#d6b656;" vertex="1" parent="1">
          <mxGeometry x="60" y="20" width="910" height="860" as="geometry" />
        </mxCell>
        <mxCell id="mVk74JgCXZxDBSlldJFi-132" value="" style="rounded=0;whiteSpace=wrap;html=1;shadow=0;glass=0;strokeColor=#6c8ebf;align=center;verticalAlign=middle;fontFamily=Helvetica;fontSize=12;fontColor=default;fillColor=#dae8fc;gradientColor=none;opacity=50;" vertex="1" parent="1">
          <mxGeometry x="30" y="-20" width="1460" height="940" as="geometry" />
        </mxCell>
        <mxCell id="mVk74JgCXZxDBSlldJFi-118" value="" style="rounded=0;whiteSpace=wrap;html=1;shadow=0;glass=0;align=center;verticalAlign=middle;fontFamily=Helvetica;fontSize=12;textOpacity=50;fillColor=#fff2cc;strokeColor=#d6b656;" vertex="1" parent="1">
          <mxGeometry x="70" y="50" width="880" height="440" as="geometry" />
        </mxCell>
        <mxCell id="mVk74JgCXZxDBSlldJFi-1" value="api calls" style="swimlane;fontStyle=0;childLayout=stackLayout;horizontal=1;startSize=30;horizontalStack=0;resizeParent=1;resizeParentMax=0;resizeLast=0;collapsible=1;marginBottom=0;whiteSpace=wrap;html=1;swimlaneFillColor=default;fillColor=default;fontColor=#333333;strokeColor=default;shadow=1;gradientColor=#B3B3B3;gradientDirection=radial;" vertex="1" parent="1">
          <mxGeometry x="-140" y="210" width="140" height="150" as="geometry">
            <mxRectangle x="-50" y="230" width="80" height="30" as="alternateBounds" />
          </mxGeometry>
        </mxCell>
        <mxCell id="mVk74JgCXZxDBSlldJFi-2" value="request method: GET" style="text;strokeColor=none;fillColor=none;align=left;verticalAlign=middle;spacingLeft=4;spacingRight=4;overflow=hidden;points=[[0,0.5],[1,0.5]];portConstraint=eastwest;rotatable=0;whiteSpace=wrap;html=1;" vertex="1" parent="mVk74JgCXZxDBSlldJFi-1">
          <mxGeometry y="30" width="140" height="30" as="geometry" />
        </mxCell>
        <mxCell id="mVk74JgCXZxDBSlldJFi-3" value="User-Agent: Safari" style="text;strokeColor=none;fillColor=none;align=left;verticalAlign=middle;spacingLeft=4;spacingRight=4;overflow=hidden;points=[[0,0.5],[1,0.5]];portConstraint=eastwest;rotatable=0;whiteSpace=wrap;html=1;" vertex="1" parent="mVk74JgCXZxDBSlldJFi-1">
          <mxGeometry y="60" width="140" height="30" as="geometry" />
        </mxCell>
        <mxCell id="mVk74JgCXZxDBSlldJFi-5" value="Server: Istio-envoy" style="text;strokeColor=none;fillColor=none;align=left;verticalAlign=middle;spacingLeft=4;spacingRight=4;overflow=hidden;points=[[0,0.5],[1,0.5]];portConstraint=eastwest;rotatable=0;whiteSpace=wrap;html=1;" vertex="1" parent="mVk74JgCXZxDBSlldJFi-1">
          <mxGeometry y="90" width="140" height="30" as="geometry" />
        </mxCell>
        <mxCell id="mVk74JgCXZxDBSlldJFi-4" value=".." style="text;strokeColor=none;fillColor=none;align=left;verticalAlign=middle;spacingLeft=4;spacingRight=4;overflow=hidden;points=[[0,0.5],[1,0.5]];portConstraint=eastwest;rotatable=0;whiteSpace=wrap;html=1;" vertex="1" parent="mVk74JgCXZxDBSlldJFi-1">
          <mxGeometry y="120" width="140" height="30" as="geometry" />
        </mxCell>
        <mxCell id="mVk74JgCXZxDBSlldJFi-6" value="" style="shape=trapezoid;perimeter=trapezoidPerimeter;whiteSpace=wrap;html=1;fixedSize=1;rotation=-90;fillColor=#f8cecc;strokeColor=#b85450;shadow=1;rounded=1;gradientColor=#EA6B66;" vertex="1" parent="1">
          <mxGeometry x="95" y="105" width="310" height="340" as="geometry" />
        </mxCell>
        <mxCell id="mVk74JgCXZxDBSlldJFi-116" value="" style="edgeStyle=orthogonalEdgeStyle;rounded=0;orthogonalLoop=1;jettySize=auto;html=1;" edge="1" parent="1" source="mVk74JgCXZxDBSlldJFi-7" target="mVk74JgCXZxDBSlldJFi-115">
          <mxGeometry relative="1" as="geometry" />
        </mxCell>
        <mxCell id="mVk74JgCXZxDBSlldJFi-7" value="" style="shape=trapezoid;perimeter=trapezoidPerimeter;whiteSpace=wrap;html=1;fixedSize=1;rotation=-90;fillColor=#fff2cc;strokeColor=#d6b656;rounded=1;shadow=1;gradientColor=#FFB570;gradientDirection=south;" vertex="1" parent="1">
          <mxGeometry x="395" y="495" width="310" height="340" as="geometry" />
        </mxCell>
        <mxCell id="mVk74JgCXZxDBSlldJFi-8" value="" style="shape=trapezoid;perimeter=trapezoidPerimeter;whiteSpace=wrap;html=1;fixedSize=1;rotation=90;fillColor=#d5e8d4;strokeColor=#82b366;shadow=1;rounded=1;gradientColor=#67AB9F;" vertex="1" parent="1">
          <mxGeometry x="565" y="105" width="310" height="340" as="geometry" />
        </mxCell>
        <mxCell id="mVk74JgCXZxDBSlldJFi-9" value="" style="shape=trapezoid;perimeter=trapezoidPerimeter;whiteSpace=wrap;html=1;fixedSize=1;rotation=-90;fillColor=#f8cecc;strokeColor=#b85450;rounded=1;shadow=1;gradientColor=#EA6B66;gradientDirection=south;" vertex="1" parent="1">
          <mxGeometry x="1004" y="105" width="310" height="340" as="geometry" />
        </mxCell>
        <mxCell id="mVk74JgCXZxDBSlldJFi-20" value="api calls" style="swimlane;fontStyle=0;childLayout=stackLayout;horizontal=1;startSize=30;horizontalStack=0;resizeParent=1;resizeParentMax=0;resizeLast=0;collapsible=1;marginBottom=0;whiteSpace=wrap;html=1;swimlaneFillColor=default;fillColor=default;fontColor=#333333;strokeColor=default;shadow=1;gradientColor=#B3B3B3;gradientDirection=radial;" vertex="1" parent="1">
          <mxGeometry x="-130" y="220" width="140" height="150" as="geometry">
            <mxRectangle x="-50" y="230" width="80" height="30" as="alternateBounds" />
          </mxGeometry>
        </mxCell>
        <mxCell id="mVk74JgCXZxDBSlldJFi-21" value="request method: GET" style="text;strokeColor=none;fillColor=none;align=left;verticalAlign=middle;spacingLeft=4;spacingRight=4;overflow=hidden;points=[[0,0.5],[1,0.5]];portConstraint=eastwest;rotatable=0;whiteSpace=wrap;html=1;" vertex="1" parent="mVk74JgCXZxDBSlldJFi-20">
          <mxGeometry y="30" width="140" height="30" as="geometry" />
        </mxCell>
        <mxCell id="mVk74JgCXZxDBSlldJFi-22" value="User-Agent: Safari" style="text;strokeColor=none;fillColor=none;align=left;verticalAlign=middle;spacingLeft=4;spacingRight=4;overflow=hidden;points=[[0,0.5],[1,0.5]];portConstraint=eastwest;rotatable=0;whiteSpace=wrap;html=1;" vertex="1" parent="mVk74JgCXZxDBSlldJFi-20">
          <mxGeometry y="60" width="140" height="30" as="geometry" />
        </mxCell>
        <mxCell id="mVk74JgCXZxDBSlldJFi-23" value="Server: Istio-envoy" style="text;strokeColor=none;fillColor=none;align=left;verticalAlign=middle;spacingLeft=4;spacingRight=4;overflow=hidden;points=[[0,0.5],[1,0.5]];portConstraint=eastwest;rotatable=0;whiteSpace=wrap;html=1;" vertex="1" parent="mVk74JgCXZxDBSlldJFi-20">
          <mxGeometry y="90" width="140" height="30" as="geometry" />
        </mxCell>
        <mxCell id="mVk74JgCXZxDBSlldJFi-24" value=".." style="text;strokeColor=none;fillColor=none;align=left;verticalAlign=middle;spacingLeft=4;spacingRight=4;overflow=hidden;points=[[0,0.5],[1,0.5]];portConstraint=eastwest;rotatable=0;whiteSpace=wrap;html=1;" vertex="1" parent="mVk74JgCXZxDBSlldJFi-20">
          <mxGeometry y="120" width="140" height="30" as="geometry" />
        </mxCell>
        <mxCell id="mVk74JgCXZxDBSlldJFi-84" style="edgeStyle=orthogonalEdgeStyle;rounded=0;orthogonalLoop=1;jettySize=auto;html=1;entryX=0;entryY=0.5;entryDx=0;entryDy=0;" edge="1" parent="1" source="mVk74JgCXZxDBSlldJFi-25" target="mVk74JgCXZxDBSlldJFi-52">
          <mxGeometry relative="1" as="geometry">
            <Array as="points">
              <mxPoint x="-30" y="665" />
            </Array>
          </mxGeometry>
        </mxCell>
        <mxCell id="mVk74JgCXZxDBSlldJFi-25" value="api calls" style="swimlane;fontStyle=0;childLayout=stackLayout;horizontal=1;startSize=30;horizontalStack=0;resizeParent=1;resizeParentMax=0;resizeLast=0;collapsible=1;marginBottom=0;whiteSpace=wrap;html=1;swimlaneFillColor=default;fillColor=default;fontColor=#333333;strokeColor=default;shadow=1;gradientColor=#B3B3B3;gradientDirection=radial;" vertex="1" parent="1">
          <mxGeometry x="-120" y="230" width="140" height="150" as="geometry">
            <mxRectangle x="-50" y="230" width="80" height="30" as="alternateBounds" />
          </mxGeometry>
        </mxCell>
        <mxCell id="mVk74JgCXZxDBSlldJFi-26" value="request method: GET" style="text;strokeColor=none;fillColor=none;align=left;verticalAlign=middle;spacingLeft=4;spacingRight=4;overflow=hidden;points=[[0,0.5],[1,0.5]];portConstraint=eastwest;rotatable=0;whiteSpace=wrap;html=1;" vertex="1" parent="mVk74JgCXZxDBSlldJFi-25">
          <mxGeometry y="30" width="140" height="30" as="geometry" />
        </mxCell>
        <mxCell id="mVk74JgCXZxDBSlldJFi-27" value="User-Agent: Safari" style="text;strokeColor=none;fillColor=none;align=left;verticalAlign=middle;spacingLeft=4;spacingRight=4;overflow=hidden;points=[[0,0.5],[1,0.5]];portConstraint=eastwest;rotatable=0;whiteSpace=wrap;html=1;" vertex="1" parent="mVk74JgCXZxDBSlldJFi-25">
          <mxGeometry y="60" width="140" height="30" as="geometry" />
        </mxCell>
        <mxCell id="mVk74JgCXZxDBSlldJFi-28" value="Server: Istio-envoy" style="text;strokeColor=none;fillColor=none;align=left;verticalAlign=middle;spacingLeft=4;spacingRight=4;overflow=hidden;points=[[0,0.5],[1,0.5]];portConstraint=eastwest;rotatable=0;whiteSpace=wrap;html=1;" vertex="1" parent="mVk74JgCXZxDBSlldJFi-25">
          <mxGeometry y="90" width="140" height="30" as="geometry" />
        </mxCell>
        <mxCell id="mVk74JgCXZxDBSlldJFi-29" value=".." style="text;strokeColor=none;fillColor=none;align=left;verticalAlign=middle;spacingLeft=4;spacingRight=4;overflow=hidden;points=[[0,0.5],[1,0.5]];portConstraint=eastwest;rotatable=0;whiteSpace=wrap;html=1;" vertex="1" parent="mVk74JgCXZxDBSlldJFi-25">
          <mxGeometry y="120" width="140" height="30" as="geometry" />
        </mxCell>
        <mxCell id="mVk74JgCXZxDBSlldJFi-67" value="" style="edgeStyle=orthogonalEdgeStyle;rounded=0;orthogonalLoop=1;jettySize=auto;html=1;" edge="1" parent="1" source="mVk74JgCXZxDBSlldJFi-31" target="mVk74JgCXZxDBSlldJFi-43">
          <mxGeometry relative="1" as="geometry" />
        </mxCell>
        <mxCell id="mVk74JgCXZxDBSlldJFi-31" value="&lt;span style=&quot;caret-color: rgb(0, 0, 0); color: rgb(0, 0, 0); font-family: Helvetica; font-size: 12px; font-style: normal; font-variant-caps: normal; font-weight: 400; letter-spacing: normal; text-align: center; text-indent: 0px; text-transform: none; word-spacing: 0px; -webkit-text-stroke-width: 0px; text-decoration: none; float: none; display: inline !important;&quot;&gt;Conv layer&lt;/span&gt;&lt;br style=&quot;border-color: var(--border-color); caret-color: rgb(0, 0, 0); color: rgb(0, 0, 0); font-family: Helvetica; font-size: 12px; font-style: normal; font-variant-caps: normal; font-weight: 400; letter-spacing: normal; text-align: center; text-indent: 0px; text-transform: none; word-spacing: 0px; -webkit-text-stroke-width: 0px; text-decoration: none;&quot;&gt;&lt;span style=&quot;caret-color: rgb(0, 0, 0); color: rgb(0, 0, 0); font-family: Helvetica; font-size: 12px; font-style: normal; font-variant-caps: normal; font-weight: 400; letter-spacing: normal; text-align: center; text-indent: 0px; text-transform: none; word-spacing: 0px; -webkit-text-stroke-width: 0px; text-decoration: none; float: none; display: inline !important;&quot;&gt;batch norm&lt;/span&gt;&lt;br style=&quot;border-color: var(--border-color); caret-color: rgb(0, 0, 0); color: rgb(0, 0, 0); font-family: Helvetica; font-size: 12px; font-style: normal; font-variant-caps: normal; font-weight: 400; letter-spacing: normal; text-align: center; text-indent: 0px; text-transform: none; word-spacing: 0px; -webkit-text-stroke-width: 0px; text-decoration: none;&quot;&gt;&lt;span style=&quot;caret-color: rgb(0, 0, 0); color: rgb(0, 0, 0); font-family: Helvetica; font-size: 12px; font-style: normal; font-variant-caps: normal; font-weight: 400; letter-spacing: normal; text-align: center; text-indent: 0px; text-transform: none; word-spacing: 0px; -webkit-text-stroke-width: 0px; text-decoration: none; float: none; display: inline !important;&quot;&gt;Leaky ReLU&lt;/span&gt;" style="rounded=1;whiteSpace=wrap;html=1;fillColor=#ffe6cc;strokeColor=#d79b00;gradientColor=#FFB570;gradientDirection=north;glass=1;shadow=1;" vertex="1" parent="1">
          <mxGeometry x="100" y="165" width="60" height="220" as="geometry" />
        </mxCell>
        <mxCell id="mVk74JgCXZxDBSlldJFi-42" value="&lt;span style=&quot;caret-color: rgb(0, 0, 0); color: rgb(0, 0, 0); font-family: Helvetica; font-size: 12px; font-style: normal; font-variant-caps: normal; font-weight: 400; letter-spacing: normal; text-align: center; text-indent: 0px; text-transform: none; word-spacing: 0px; -webkit-text-stroke-width: 0px; text-decoration: none; float: none; display: inline !important;&quot;&gt;Conv layer&lt;/span&gt;&lt;br style=&quot;border-color: var(--border-color); caret-color: rgb(0, 0, 0); color: rgb(0, 0, 0); font-family: Helvetica; font-size: 12px; font-style: normal; font-variant-caps: normal; font-weight: 400; letter-spacing: normal; text-align: center; text-indent: 0px; text-transform: none; word-spacing: 0px; -webkit-text-stroke-width: 0px; text-decoration: none;&quot;&gt;&lt;span style=&quot;caret-color: rgb(0, 0, 0); color: rgb(0, 0, 0); font-family: Helvetica; font-size: 12px; font-style: normal; font-variant-caps: normal; font-weight: 400; letter-spacing: normal; text-align: center; text-indent: 0px; text-transform: none; word-spacing: 0px; -webkit-text-stroke-width: 0px; text-decoration: none; float: none; display: inline !important;&quot;&gt;batch norm&lt;/span&gt;&lt;br style=&quot;border-color: var(--border-color); caret-color: rgb(0, 0, 0); color: rgb(0, 0, 0); font-family: Helvetica; font-size: 12px; font-style: normal; font-variant-caps: normal; font-weight: 400; letter-spacing: normal; text-align: center; text-indent: 0px; text-transform: none; word-spacing: 0px; -webkit-text-stroke-width: 0px; text-decoration: none;&quot;&gt;&lt;span style=&quot;caret-color: rgb(0, 0, 0); color: rgb(0, 0, 0); font-family: Helvetica; font-size: 12px; font-style: normal; font-variant-caps: normal; font-weight: 400; letter-spacing: normal; text-align: center; text-indent: 0px; text-transform: none; word-spacing: 0px; -webkit-text-stroke-width: 0px; text-decoration: none; float: none; display: inline !important;&quot;&gt;Leaky ReLU&lt;/span&gt;" style="rounded=1;whiteSpace=wrap;html=1;fillColor=#ffe6cc;strokeColor=#d79b00;gradientColor=#FFB570;gradientDirection=north;glass=1;shadow=1;" vertex="1" parent="1">
          <mxGeometry x="180" y="165" width="60" height="220" as="geometry" />
        </mxCell>
        <mxCell id="mVk74JgCXZxDBSlldJFi-61" value="" style="edgeStyle=orthogonalEdgeStyle;rounded=0;orthogonalLoop=1;jettySize=auto;html=1;" edge="1" parent="1" source="mVk74JgCXZxDBSlldJFi-44" target="mVk74JgCXZxDBSlldJFi-60">
          <mxGeometry relative="1" as="geometry" />
        </mxCell>
        <mxCell id="mVk74JgCXZxDBSlldJFi-44" value="fully connected layer" style="rounded=1;whiteSpace=wrap;html=1;fillColor=#dae8fc;strokeColor=#6c8ebf;glass=1;shadow=1;gradientColor=#7EA6E0;" vertex="1" parent="1">
          <mxGeometry x="354" y="165" width="60" height="105" as="geometry" />
        </mxCell>
        <mxCell id="mVk74JgCXZxDBSlldJFi-62" value="" style="edgeStyle=orthogonalEdgeStyle;rounded=0;orthogonalLoop=1;jettySize=auto;html=1;" edge="1" parent="1" source="mVk74JgCXZxDBSlldJFi-45" target="mVk74JgCXZxDBSlldJFi-60">
          <mxGeometry relative="1" as="geometry" />
        </mxCell>
        <mxCell id="mVk74JgCXZxDBSlldJFi-45" value="fully connected layer" style="rounded=1;whiteSpace=wrap;html=1;fillColor=#dae8fc;strokeColor=#6c8ebf;glass=1;shadow=1;gradientColor=#7EA6E0;" vertex="1" parent="1">
          <mxGeometry x="354" y="280" width="60" height="105" as="geometry" />
        </mxCell>
        <mxCell id="mVk74JgCXZxDBSlldJFi-46" value="&lt;span style=&quot;caret-color: rgb(0, 0, 0); color: rgb(0, 0, 0); font-family: Helvetica; font-size: 12px; font-style: normal; font-variant-caps: normal; font-weight: 400; letter-spacing: normal; text-align: center; text-indent: 0px; text-transform: none; word-spacing: 0px; -webkit-text-stroke-width: 0px; text-decoration: none; float: none; display: inline !important;&quot;&gt;Conv layer&lt;/span&gt;&lt;br style=&quot;border-color: var(--border-color); caret-color: rgb(0, 0, 0); color: rgb(0, 0, 0); font-family: Helvetica; font-size: 12px; font-style: normal; font-variant-caps: normal; font-weight: 400; letter-spacing: normal; text-align: center; text-indent: 0px; text-transform: none; word-spacing: 0px; -webkit-text-stroke-width: 0px; text-decoration: none;&quot;&gt;&lt;span style=&quot;caret-color: rgb(0, 0, 0); color: rgb(0, 0, 0); font-family: Helvetica; font-size: 12px; font-style: normal; font-variant-caps: normal; font-weight: 400; letter-spacing: normal; text-align: center; text-indent: 0px; text-transform: none; word-spacing: 0px; -webkit-text-stroke-width: 0px; text-decoration: none; float: none; display: inline !important;&quot;&gt;batch norm&lt;/span&gt;&lt;br style=&quot;border-color: var(--border-color); caret-color: rgb(0, 0, 0); color: rgb(0, 0, 0); font-family: Helvetica; font-size: 12px; font-style: normal; font-variant-caps: normal; font-weight: 400; letter-spacing: normal; text-align: center; text-indent: 0px; text-transform: none; word-spacing: 0px; -webkit-text-stroke-width: 0px; text-decoration: none;&quot;&gt;&lt;span style=&quot;caret-color: rgb(0, 0, 0); color: rgb(0, 0, 0); font-family: Helvetica; font-size: 12px; font-style: normal; font-variant-caps: normal; font-weight: 400; letter-spacing: normal; text-align: center; text-indent: 0px; text-transform: none; word-spacing: 0px; -webkit-text-stroke-width: 0px; text-decoration: none; float: none; display: inline !important;&quot;&gt;Leaky ReLU&lt;/span&gt;" style="rounded=1;whiteSpace=wrap;html=1;fillColor=#ffe6cc;strokeColor=#d79b00;gradientColor=#FFB570;gradientDirection=north;glass=1;shadow=1;" vertex="1" parent="1">
          <mxGeometry x="810" y="160" width="60" height="220" as="geometry" />
        </mxCell>
        <mxCell id="mVk74JgCXZxDBSlldJFi-71" style="edgeStyle=orthogonalEdgeStyle;rounded=0;orthogonalLoop=1;jettySize=auto;html=1;exitX=1;exitY=0.5;exitDx=0;exitDy=0;entryX=0;entryY=0.5;entryDx=0;entryDy=0;" edge="1" parent="1" source="mVk74JgCXZxDBSlldJFi-48" target="mVk74JgCXZxDBSlldJFi-46">
          <mxGeometry relative="1" as="geometry" />
        </mxCell>
        <mxCell id="mVk74JgCXZxDBSlldJFi-48" value="&lt;span style=&quot;caret-color: rgb(0, 0, 0); color: rgb(0, 0, 0); font-family: Helvetica; font-size: 12px; font-style: normal; font-variant-caps: normal; font-weight: 400; letter-spacing: normal; text-align: center; text-indent: 0px; text-transform: none; word-spacing: 0px; -webkit-text-stroke-width: 0px; text-decoration: none; float: none; display: inline !important;&quot;&gt;Conv layer&lt;/span&gt;&lt;br style=&quot;border-color: var(--border-color); caret-color: rgb(0, 0, 0); color: rgb(0, 0, 0); font-family: Helvetica; font-size: 12px; font-style: normal; font-variant-caps: normal; font-weight: 400; letter-spacing: normal; text-align: center; text-indent: 0px; text-transform: none; word-spacing: 0px; -webkit-text-stroke-width: 0px; text-decoration: none;&quot;&gt;&lt;span style=&quot;caret-color: rgb(0, 0, 0); color: rgb(0, 0, 0); font-family: Helvetica; font-size: 12px; font-style: normal; font-variant-caps: normal; font-weight: 400; letter-spacing: normal; text-align: center; text-indent: 0px; text-transform: none; word-spacing: 0px; -webkit-text-stroke-width: 0px; text-decoration: none; float: none; display: inline !important;&quot;&gt;batch norm&lt;/span&gt;&lt;br style=&quot;border-color: var(--border-color); caret-color: rgb(0, 0, 0); color: rgb(0, 0, 0); font-family: Helvetica; font-size: 12px; font-style: normal; font-variant-caps: normal; font-weight: 400; letter-spacing: normal; text-align: center; text-indent: 0px; text-transform: none; word-spacing: 0px; -webkit-text-stroke-width: 0px; text-decoration: none;&quot;&gt;&lt;span style=&quot;caret-color: rgb(0, 0, 0); color: rgb(0, 0, 0); font-family: Helvetica; font-size: 12px; font-style: normal; font-variant-caps: normal; font-weight: 400; letter-spacing: normal; text-align: center; text-indent: 0px; text-transform: none; word-spacing: 0px; -webkit-text-stroke-width: 0px; text-decoration: none; float: none; display: inline !important;&quot;&gt;Leaky ReLU&lt;/span&gt;" style="rounded=1;whiteSpace=wrap;html=1;fillColor=#ffe6cc;strokeColor=#d79b00;gradientColor=#FFB570;gradientDirection=north;glass=1;shadow=1;" vertex="1" parent="1">
          <mxGeometry x="730" y="160" width="60" height="220" as="geometry" />
        </mxCell>
        <mxCell id="mVk74JgCXZxDBSlldJFi-70" value="" style="edgeStyle=orthogonalEdgeStyle;rounded=0;orthogonalLoop=1;jettySize=auto;html=1;" edge="1" parent="1" source="mVk74JgCXZxDBSlldJFi-49" target="mVk74JgCXZxDBSlldJFi-48">
          <mxGeometry relative="1" as="geometry" />
        </mxCell>
        <mxCell id="mVk74JgCXZxDBSlldJFi-49" value="&lt;span style=&quot;caret-color: rgb(0, 0, 0); color: rgb(0, 0, 0); font-family: Helvetica; font-size: 12px; font-style: normal; font-variant-caps: normal; font-weight: 400; letter-spacing: normal; text-align: center; text-indent: 0px; text-transform: none; word-spacing: 0px; -webkit-text-stroke-width: 0px; text-decoration: none; float: none; display: inline !important;&quot;&gt;Conv layer&lt;/span&gt;&lt;br style=&quot;border-color: var(--border-color); caret-color: rgb(0, 0, 0); color: rgb(0, 0, 0); font-family: Helvetica; font-size: 12px; font-style: normal; font-variant-caps: normal; font-weight: 400; letter-spacing: normal; text-align: center; text-indent: 0px; text-transform: none; word-spacing: 0px; -webkit-text-stroke-width: 0px; text-decoration: none;&quot;&gt;&lt;span style=&quot;caret-color: rgb(0, 0, 0); color: rgb(0, 0, 0); font-family: Helvetica; font-size: 12px; font-style: normal; font-variant-caps: normal; font-weight: 400; letter-spacing: normal; text-align: center; text-indent: 0px; text-transform: none; word-spacing: 0px; -webkit-text-stroke-width: 0px; text-decoration: none; float: none; display: inline !important;&quot;&gt;batch norm&lt;/span&gt;&lt;br style=&quot;border-color: var(--border-color); caret-color: rgb(0, 0, 0); color: rgb(0, 0, 0); font-family: Helvetica; font-size: 12px; font-style: normal; font-variant-caps: normal; font-weight: 400; letter-spacing: normal; text-align: center; text-indent: 0px; text-transform: none; word-spacing: 0px; -webkit-text-stroke-width: 0px; text-decoration: none;&quot;&gt;&lt;span style=&quot;caret-color: rgb(0, 0, 0); color: rgb(0, 0, 0); font-family: Helvetica; font-size: 12px; font-style: normal; font-variant-caps: normal; font-weight: 400; letter-spacing: normal; text-align: center; text-indent: 0px; text-transform: none; word-spacing: 0px; -webkit-text-stroke-width: 0px; text-decoration: none; float: none; display: inline !important;&quot;&gt;Leaky ReLU&lt;/span&gt;" style="rounded=1;whiteSpace=wrap;html=1;fillColor=#ffe6cc;strokeColor=#d79b00;gradientColor=#FFB570;gradientDirection=north;glass=1;shadow=1;" vertex="1" parent="1">
          <mxGeometry x="650" y="160" width="60" height="220" as="geometry" />
        </mxCell>
        <mxCell id="mVk74JgCXZxDBSlldJFi-109" style="edgeStyle=orthogonalEdgeStyle;rounded=0;orthogonalLoop=1;jettySize=auto;html=1;exitX=1;exitY=0.5;exitDx=0;exitDy=0;entryX=0;entryY=0.5;entryDx=0;entryDy=0;" edge="1" parent="1" source="mVk74JgCXZxDBSlldJFi-52" target="mVk74JgCXZxDBSlldJFi-53">
          <mxGeometry relative="1" as="geometry" />
        </mxCell>
        <mxCell id="mVk74JgCXZxDBSlldJFi-52" value="&lt;span style=&quot;caret-color: rgb(0, 0, 0); color: rgb(0, 0, 0); font-family: Helvetica; font-size: 12px; font-style: normal; font-variant-caps: normal; font-weight: 400; letter-spacing: normal; text-align: center; text-indent: 0px; text-transform: none; word-spacing: 0px; -webkit-text-stroke-width: 0px; text-decoration: none; float: none; display: inline !important;&quot;&gt;Conv layer&lt;/span&gt;&lt;br style=&quot;border-color: var(--border-color); caret-color: rgb(0, 0, 0); color: rgb(0, 0, 0); font-family: Helvetica; font-size: 12px; font-style: normal; font-variant-caps: normal; font-weight: 400; letter-spacing: normal; text-align: center; text-indent: 0px; text-transform: none; word-spacing: 0px; -webkit-text-stroke-width: 0px; text-decoration: none;&quot;&gt;&lt;span style=&quot;caret-color: rgb(0, 0, 0); color: rgb(0, 0, 0); font-family: Helvetica; font-size: 12px; font-style: normal; font-variant-caps: normal; font-weight: 400; letter-spacing: normal; text-align: center; text-indent: 0px; text-transform: none; word-spacing: 0px; -webkit-text-stroke-width: 0px; text-decoration: none; float: none; display: inline !important;&quot;&gt;batch norm&lt;/span&gt;&lt;br style=&quot;border-color: var(--border-color); caret-color: rgb(0, 0, 0); color: rgb(0, 0, 0); font-family: Helvetica; font-size: 12px; font-style: normal; font-variant-caps: normal; font-weight: 400; letter-spacing: normal; text-align: center; text-indent: 0px; text-transform: none; word-spacing: 0px; -webkit-text-stroke-width: 0px; text-decoration: none;&quot;&gt;&lt;span style=&quot;caret-color: rgb(0, 0, 0); color: rgb(0, 0, 0); font-family: Helvetica; font-size: 12px; font-style: normal; font-variant-caps: normal; font-weight: 400; letter-spacing: normal; text-align: center; text-indent: 0px; text-transform: none; word-spacing: 0px; -webkit-text-stroke-width: 0px; text-decoration: none; float: none; display: inline !important;&quot;&gt;Leaky ReLU&lt;/span&gt;" style="rounded=1;whiteSpace=wrap;html=1;fillColor=#ffe6cc;strokeColor=#d79b00;glass=1;shadow=1;gradientColor=#FFB570;gradientDirection=north;" vertex="1" parent="1">
          <mxGeometry x="400" y="555" width="60" height="220" as="geometry" />
        </mxCell>
        <mxCell id="mVk74JgCXZxDBSlldJFi-110" style="edgeStyle=orthogonalEdgeStyle;rounded=0;orthogonalLoop=1;jettySize=auto;html=1;exitX=1;exitY=0.5;exitDx=0;exitDy=0;entryX=0;entryY=0.5;entryDx=0;entryDy=0;" edge="1" parent="1" source="mVk74JgCXZxDBSlldJFi-53" target="mVk74JgCXZxDBSlldJFi-54">
          <mxGeometry relative="1" as="geometry" />
        </mxCell>
        <mxCell id="mVk74JgCXZxDBSlldJFi-53" value="&lt;span style=&quot;caret-color: rgb(0, 0, 0); color: rgb(0, 0, 0); font-family: Helvetica; font-size: 12px; font-style: normal; font-variant-caps: normal; font-weight: 400; letter-spacing: normal; text-align: center; text-indent: 0px; text-transform: none; word-spacing: 0px; -webkit-text-stroke-width: 0px; text-decoration: none; float: none; display: inline !important;&quot;&gt;Conv layer&lt;/span&gt;&lt;br style=&quot;border-color: var(--border-color); caret-color: rgb(0, 0, 0); color: rgb(0, 0, 0); font-family: Helvetica; font-size: 12px; font-style: normal; font-variant-caps: normal; font-weight: 400; letter-spacing: normal; text-align: center; text-indent: 0px; text-transform: none; word-spacing: 0px; -webkit-text-stroke-width: 0px; text-decoration: none;&quot;&gt;&lt;span style=&quot;caret-color: rgb(0, 0, 0); color: rgb(0, 0, 0); font-family: Helvetica; font-size: 12px; font-style: normal; font-variant-caps: normal; font-weight: 400; letter-spacing: normal; text-align: center; text-indent: 0px; text-transform: none; word-spacing: 0px; -webkit-text-stroke-width: 0px; text-decoration: none; float: none; display: inline !important;&quot;&gt;batch norm&lt;/span&gt;&lt;br style=&quot;border-color: var(--border-color); caret-color: rgb(0, 0, 0); color: rgb(0, 0, 0); font-family: Helvetica; font-size: 12px; font-style: normal; font-variant-caps: normal; font-weight: 400; letter-spacing: normal; text-align: center; text-indent: 0px; text-transform: none; word-spacing: 0px; -webkit-text-stroke-width: 0px; text-decoration: none;&quot;&gt;&lt;span style=&quot;caret-color: rgb(0, 0, 0); color: rgb(0, 0, 0); font-family: Helvetica; font-size: 12px; font-style: normal; font-variant-caps: normal; font-weight: 400; letter-spacing: normal; text-align: center; text-indent: 0px; text-transform: none; word-spacing: 0px; -webkit-text-stroke-width: 0px; text-decoration: none; float: none; display: inline !important;&quot;&gt;Leaky ReLU&lt;/span&gt;" style="rounded=1;whiteSpace=wrap;html=1;fillColor=#ffe6cc;strokeColor=#d79b00;glass=1;shadow=1;gradientColor=#FFB570;gradientDirection=north;" vertex="1" parent="1">
          <mxGeometry x="480" y="555" width="60" height="220" as="geometry" />
        </mxCell>
        <mxCell id="mVk74JgCXZxDBSlldJFi-111" style="rounded=0;orthogonalLoop=1;jettySize=auto;html=1;exitX=1;exitY=0.25;exitDx=0;exitDy=0;entryX=0;entryY=0.5;entryDx=0;entryDy=0;" edge="1" parent="1" source="mVk74JgCXZxDBSlldJFi-54" target="mVk74JgCXZxDBSlldJFi-55">
          <mxGeometry relative="1" as="geometry" />
        </mxCell>
        <mxCell id="mVk74JgCXZxDBSlldJFi-112" style="rounded=0;orthogonalLoop=1;jettySize=auto;html=1;exitX=1;exitY=0.75;exitDx=0;exitDy=0;entryX=0;entryY=0.5;entryDx=0;entryDy=0;" edge="1" parent="1" source="mVk74JgCXZxDBSlldJFi-54" target="mVk74JgCXZxDBSlldJFi-56">
          <mxGeometry relative="1" as="geometry" />
        </mxCell>
        <mxCell id="mVk74JgCXZxDBSlldJFi-54" value="&lt;span style=&quot;caret-color: rgb(0, 0, 0); color: rgb(0, 0, 0); font-family: Helvetica; font-size: 12px; font-style: normal; font-variant-caps: normal; font-weight: 400; letter-spacing: normal; text-align: center; text-indent: 0px; text-transform: none; word-spacing: 0px; -webkit-text-stroke-width: 0px; text-decoration: none; float: none; display: inline !important;&quot;&gt;Conv layer&lt;/span&gt;&lt;br style=&quot;border-color: var(--border-color); caret-color: rgb(0, 0, 0); color: rgb(0, 0, 0); font-family: Helvetica; font-size: 12px; font-style: normal; font-variant-caps: normal; font-weight: 400; letter-spacing: normal; text-align: center; text-indent: 0px; text-transform: none; word-spacing: 0px; -webkit-text-stroke-width: 0px; text-decoration: none;&quot;&gt;&lt;span style=&quot;caret-color: rgb(0, 0, 0); color: rgb(0, 0, 0); font-family: Helvetica; font-size: 12px; font-style: normal; font-variant-caps: normal; font-weight: 400; letter-spacing: normal; text-align: center; text-indent: 0px; text-transform: none; word-spacing: 0px; -webkit-text-stroke-width: 0px; text-decoration: none; float: none; display: inline !important;&quot;&gt;batch norm&lt;/span&gt;&lt;br style=&quot;border-color: var(--border-color); caret-color: rgb(0, 0, 0); color: rgb(0, 0, 0); font-family: Helvetica; font-size: 12px; font-style: normal; font-variant-caps: normal; font-weight: 400; letter-spacing: normal; text-align: center; text-indent: 0px; text-transform: none; word-spacing: 0px; -webkit-text-stroke-width: 0px; text-decoration: none;&quot;&gt;&lt;span style=&quot;caret-color: rgb(0, 0, 0); color: rgb(0, 0, 0); font-family: Helvetica; font-size: 12px; font-style: normal; font-variant-caps: normal; font-weight: 400; letter-spacing: normal; text-align: center; text-indent: 0px; text-transform: none; word-spacing: 0px; -webkit-text-stroke-width: 0px; text-decoration: none; float: none; display: inline !important;&quot;&gt;Leaky ReLU&lt;/span&gt;" style="rounded=1;whiteSpace=wrap;html=1;fillColor=#ffe6cc;strokeColor=#d79b00;glass=1;shadow=1;gradientColor=#FFB570;gradientDirection=north;" vertex="1" parent="1">
          <mxGeometry x="560" y="555" width="60" height="220" as="geometry" />
        </mxCell>
        <mxCell id="mVk74JgCXZxDBSlldJFi-55" value="fully connected layer" style="rounded=1;whiteSpace=wrap;html=1;fillColor=#dae8fc;strokeColor=#6c8ebf;glass=1;shadow=1;gradientColor=#7EA6E0;" vertex="1" parent="1">
          <mxGeometry x="640" y="555" width="60" height="105" as="geometry" />
        </mxCell>
        <mxCell id="mVk74JgCXZxDBSlldJFi-56" value="sigmoid" style="rounded=1;whiteSpace=wrap;html=1;fillColor=#f8cecc;strokeColor=#b85450;glass=1;shadow=1;gradientColor=#F19C99;" vertex="1" parent="1">
          <mxGeometry x="640" y="670" width="60" height="105" as="geometry" />
        </mxCell>
        <mxCell id="mVk74JgCXZxDBSlldJFi-72" style="edgeStyle=orthogonalEdgeStyle;rounded=0;orthogonalLoop=1;jettySize=auto;html=1;exitX=1;exitY=0.5;exitDx=0;exitDy=0;" edge="1" parent="1" source="mVk74JgCXZxDBSlldJFi-57" target="mVk74JgCXZxDBSlldJFi-49">
          <mxGeometry relative="1" as="geometry" />
        </mxCell>
        <mxCell id="mVk74JgCXZxDBSlldJFi-57" value="Linear layer" style="rounded=1;whiteSpace=wrap;html=1;fillColor=#dae8fc;strokeColor=#6c8ebf;glass=1;shadow=1;gradientColor=#7EA6E0;" vertex="1" parent="1">
          <mxGeometry x="570" y="160" width="60" height="220" as="geometry" />
        </mxCell>
        <mxCell id="mVk74JgCXZxDBSlldJFi-58" value="mu" style="rounded=1;whiteSpace=wrap;html=1;fillColor=#e1d5e7;strokeColor=#9673a6;gradientColor=#A680B8;glass=1;shadow=1;gradientDirection=radial;" vertex="1" parent="1">
          <mxGeometry x="430" y="192.5" width="50" height="50" as="geometry" />
        </mxCell>
        <mxCell id="mVk74JgCXZxDBSlldJFi-59" value="sigma" style="rounded=1;whiteSpace=wrap;html=1;fillColor=#e1d5e7;strokeColor=#9673a6;gradientColor=#A680B8;glass=1;shadow=1;gradientDirection=radial;" vertex="1" parent="1">
          <mxGeometry x="430" y="310" width="50" height="50" as="geometry" />
        </mxCell>
        <mxCell id="mVk74JgCXZxDBSlldJFi-73" value="" style="edgeStyle=orthogonalEdgeStyle;rounded=0;orthogonalLoop=1;jettySize=auto;html=1;" edge="1" parent="1" source="mVk74JgCXZxDBSlldJFi-60" target="mVk74JgCXZxDBSlldJFi-57">
          <mxGeometry relative="1" as="geometry" />
        </mxCell>
        <mxCell id="mVk74JgCXZxDBSlldJFi-60" value="z" style="rounded=1;whiteSpace=wrap;html=1;fillColor=default;strokeColor=default;fontColor=#333333;shadow=1;gradientColor=#B3B3B3;gradientDirection=radial;" vertex="1" parent="1">
          <mxGeometry x="480" y="245" width="50" height="50" as="geometry" />
        </mxCell>
        <mxCell id="mVk74JgCXZxDBSlldJFi-74" value="" style="edgeStyle=orthogonalEdgeStyle;rounded=0;orthogonalLoop=1;jettySize=auto;html=1;" edge="1" parent="1" source="mVk74JgCXZxDBSlldJFi-42" target="mVk74JgCXZxDBSlldJFi-43">
          <mxGeometry relative="1" as="geometry">
            <mxPoint x="240" y="275" as="sourcePoint" />
            <mxPoint x="340" y="333" as="targetPoint" />
          </mxGeometry>
        </mxCell>
        <mxCell id="mVk74JgCXZxDBSlldJFi-78" style="rounded=0;orthogonalLoop=1;jettySize=auto;html=1;exitX=1;exitY=0.25;exitDx=0;exitDy=0;entryX=0;entryY=0.5;entryDx=0;entryDy=0;" edge="1" parent="1" source="mVk74JgCXZxDBSlldJFi-43" target="mVk74JgCXZxDBSlldJFi-44">
          <mxGeometry relative="1" as="geometry" />
        </mxCell>
        <mxCell id="mVk74JgCXZxDBSlldJFi-81" style="rounded=0;orthogonalLoop=1;jettySize=auto;html=1;entryX=0;entryY=0.5;entryDx=0;entryDy=0;exitX=1;exitY=0.75;exitDx=0;exitDy=0;" edge="1" parent="1" source="mVk74JgCXZxDBSlldJFi-43" target="mVk74JgCXZxDBSlldJFi-45">
          <mxGeometry relative="1" as="geometry">
            <mxPoint x="354" y="330" as="sourcePoint" />
          </mxGeometry>
        </mxCell>
        <mxCell id="mVk74JgCXZxDBSlldJFi-43" value="&lt;span style=&quot;caret-color: rgb(0, 0, 0); color: rgb(0, 0, 0); font-family: Helvetica; font-size: 12px; font-style: normal; font-variant-caps: normal; font-weight: 400; letter-spacing: normal; text-align: center; text-indent: 0px; text-transform: none; word-spacing: 0px; -webkit-text-stroke-width: 0px; text-decoration: none; float: none; display: inline !important;&quot;&gt;Conv layer&lt;/span&gt;&lt;br style=&quot;border-color: var(--border-color); caret-color: rgb(0, 0, 0); color: rgb(0, 0, 0); font-family: Helvetica; font-size: 12px; font-style: normal; font-variant-caps: normal; font-weight: 400; letter-spacing: normal; text-align: center; text-indent: 0px; text-transform: none; word-spacing: 0px; -webkit-text-stroke-width: 0px; text-decoration: none;&quot;&gt;&lt;span style=&quot;caret-color: rgb(0, 0, 0); color: rgb(0, 0, 0); font-family: Helvetica; font-size: 12px; font-style: normal; font-variant-caps: normal; font-weight: 400; letter-spacing: normal; text-align: center; text-indent: 0px; text-transform: none; word-spacing: 0px; -webkit-text-stroke-width: 0px; text-decoration: none; float: none; display: inline !important;&quot;&gt;batch norm&lt;/span&gt;&lt;br style=&quot;border-color: var(--border-color); caret-color: rgb(0, 0, 0); color: rgb(0, 0, 0); font-family: Helvetica; font-size: 12px; font-style: normal; font-variant-caps: normal; font-weight: 400; letter-spacing: normal; text-align: center; text-indent: 0px; text-transform: none; word-spacing: 0px; -webkit-text-stroke-width: 0px; text-decoration: none;&quot;&gt;&lt;span style=&quot;caret-color: rgb(0, 0, 0); color: rgb(0, 0, 0); font-family: Helvetica; font-size: 12px; font-style: normal; font-variant-caps: normal; font-weight: 400; letter-spacing: normal; text-align: center; text-indent: 0px; text-transform: none; word-spacing: 0px; -webkit-text-stroke-width: 0px; text-decoration: none; float: none; display: inline !important;&quot;&gt;Leaky ReLU&lt;/span&gt;" style="rounded=1;whiteSpace=wrap;html=1;fillColor=#ffe6cc;strokeColor=#d79b00;gradientColor=#FFB570;gradientDirection=north;glass=1;shadow=1;" vertex="1" parent="1">
          <mxGeometry x="260" y="165" width="60" height="220" as="geometry" />
        </mxCell>
        <mxCell id="mVk74JgCXZxDBSlldJFi-75" style="edgeStyle=orthogonalEdgeStyle;rounded=0;orthogonalLoop=1;jettySize=auto;html=1;entryX=0;entryY=0.5;entryDx=0;entryDy=0;" edge="1" parent="1" source="mVk74JgCXZxDBSlldJFi-26" target="mVk74JgCXZxDBSlldJFi-31">
          <mxGeometry relative="1" as="geometry" />
        </mxCell>
        <mxCell id="mVk74JgCXZxDBSlldJFi-107" style="edgeStyle=orthogonalEdgeStyle;rounded=0;orthogonalLoop=1;jettySize=auto;html=1;exitX=0.5;exitY=1;exitDx=0;exitDy=0;" edge="1" parent="1" source="mVk74JgCXZxDBSlldJFi-85">
          <mxGeometry relative="1" as="geometry">
            <mxPoint x="398" y="650" as="targetPoint" />
            <Array as="points">
              <mxPoint x="925" y="485" />
              <mxPoint x="280" y="485" />
              <mxPoint x="280" y="650" />
              <mxPoint x="398" y="650" />
            </Array>
          </mxGeometry>
        </mxCell>
        <mxCell id="mVk74JgCXZxDBSlldJFi-108" value="" style="edgeStyle=orthogonalEdgeStyle;rounded=0;orthogonalLoop=1;jettySize=auto;html=1;" edge="1" parent="1" target="mVk74JgCXZxDBSlldJFi-88">
          <mxGeometry relative="1" as="geometry">
            <mxPoint x="980" y="275" as="sourcePoint" />
          </mxGeometry>
        </mxCell>
        <mxCell id="mVk74JgCXZxDBSlldJFi-128" value="" style="edgeStyle=orthogonalEdgeStyle;rounded=0;orthogonalLoop=1;jettySize=auto;html=1;fontFamily=Helvetica;fontSize=12;fontColor=default;" edge="1" parent="1" source="mVk74JgCXZxDBSlldJFi-85" target="mVk74JgCXZxDBSlldJFi-87">
          <mxGeometry relative="1" as="geometry" />
        </mxCell>
        <mxCell id="mVk74JgCXZxDBSlldJFi-85" value="x&#39;" style="rounded=1;whiteSpace=wrap;html=1;fillColor=default;fontColor=#333333;strokeColor=default;shadow=1;gradientColor=#B3B3B3;gradientDirection=radial;" vertex="1" parent="1">
          <mxGeometry x="900" y="250" width="50" height="50" as="geometry" />
        </mxCell>
        <mxCell id="mVk74JgCXZxDBSlldJFi-86" value="" style="edgeStyle=orthogonalEdgeStyle;rounded=0;orthogonalLoop=1;jettySize=auto;html=1;" edge="1" parent="1" source="mVk74JgCXZxDBSlldJFi-87" target="mVk74JgCXZxDBSlldJFi-98">
          <mxGeometry relative="1" as="geometry" />
        </mxCell>
        <mxCell id="mVk74JgCXZxDBSlldJFi-87" value="&lt;span style=&quot;caret-color: rgb(0, 0, 0); color: rgb(0, 0, 0); font-family: Helvetica; font-size: 12px; font-style: normal; font-variant-caps: normal; font-weight: 400; letter-spacing: normal; text-align: center; text-indent: 0px; text-transform: none; word-spacing: 0px; -webkit-text-stroke-width: 0px; text-decoration: none; float: none; display: inline !important;&quot;&gt;Conv layer&lt;/span&gt;&lt;br style=&quot;border-color: var(--border-color); caret-color: rgb(0, 0, 0); color: rgb(0, 0, 0); font-family: Helvetica; font-size: 12px; font-style: normal; font-variant-caps: normal; font-weight: 400; letter-spacing: normal; text-align: center; text-indent: 0px; text-transform: none; word-spacing: 0px; -webkit-text-stroke-width: 0px; text-decoration: none;&quot;&gt;&lt;span style=&quot;caret-color: rgb(0, 0, 0); color: rgb(0, 0, 0); font-family: Helvetica; font-size: 12px; font-style: normal; font-variant-caps: normal; font-weight: 400; letter-spacing: normal; text-align: center; text-indent: 0px; text-transform: none; word-spacing: 0px; -webkit-text-stroke-width: 0px; text-decoration: none; float: none; display: inline !important;&quot;&gt;batch norm&lt;/span&gt;&lt;br style=&quot;border-color: var(--border-color); caret-color: rgb(0, 0, 0); color: rgb(0, 0, 0); font-family: Helvetica; font-size: 12px; font-style: normal; font-variant-caps: normal; font-weight: 400; letter-spacing: normal; text-align: center; text-indent: 0px; text-transform: none; word-spacing: 0px; -webkit-text-stroke-width: 0px; text-decoration: none;&quot;&gt;&lt;span style=&quot;caret-color: rgb(0, 0, 0); color: rgb(0, 0, 0); font-family: Helvetica; font-size: 12px; font-style: normal; font-variant-caps: normal; font-weight: 400; letter-spacing: normal; text-align: center; text-indent: 0px; text-transform: none; word-spacing: 0px; -webkit-text-stroke-width: 0px; text-decoration: none; float: none; display: inline !important;&quot;&gt;Leaky ReLU&lt;/span&gt;" style="rounded=1;whiteSpace=wrap;html=1;fillColor=#ffe6cc;strokeColor=#d79b00;gradientColor=#FFB570;gradientDirection=north;glass=1;shadow=1;" vertex="1" parent="1">
          <mxGeometry x="1000" y="165" width="60" height="220" as="geometry" />
        </mxCell>
        <mxCell id="mVk74JgCXZxDBSlldJFi-88" value="&lt;span style=&quot;caret-color: rgb(0, 0, 0); color: rgb(0, 0, 0); font-family: Helvetica; font-size: 12px; font-style: normal; font-variant-caps: normal; font-weight: 400; letter-spacing: normal; text-align: center; text-indent: 0px; text-transform: none; word-spacing: 0px; -webkit-text-stroke-width: 0px; text-decoration: none; float: none; display: inline !important;&quot;&gt;Conv layer&lt;/span&gt;&lt;br style=&quot;border-color: var(--border-color); caret-color: rgb(0, 0, 0); color: rgb(0, 0, 0); font-family: Helvetica; font-size: 12px; font-style: normal; font-variant-caps: normal; font-weight: 400; letter-spacing: normal; text-align: center; text-indent: 0px; text-transform: none; word-spacing: 0px; -webkit-text-stroke-width: 0px; text-decoration: none;&quot;&gt;&lt;span style=&quot;caret-color: rgb(0, 0, 0); color: rgb(0, 0, 0); font-family: Helvetica; font-size: 12px; font-style: normal; font-variant-caps: normal; font-weight: 400; letter-spacing: normal; text-align: center; text-indent: 0px; text-transform: none; word-spacing: 0px; -webkit-text-stroke-width: 0px; text-decoration: none; float: none; display: inline !important;&quot;&gt;batch norm&lt;/span&gt;&lt;br style=&quot;border-color: var(--border-color); caret-color: rgb(0, 0, 0); color: rgb(0, 0, 0); font-family: Helvetica; font-size: 12px; font-style: normal; font-variant-caps: normal; font-weight: 400; letter-spacing: normal; text-align: center; text-indent: 0px; text-transform: none; word-spacing: 0px; -webkit-text-stroke-width: 0px; text-decoration: none;&quot;&gt;&lt;span style=&quot;caret-color: rgb(0, 0, 0); color: rgb(0, 0, 0); font-family: Helvetica; font-size: 12px; font-style: normal; font-variant-caps: normal; font-weight: 400; letter-spacing: normal; text-align: center; text-indent: 0px; text-transform: none; word-spacing: 0px; -webkit-text-stroke-width: 0px; text-decoration: none; float: none; display: inline !important;&quot;&gt;Leaky ReLU&lt;/span&gt;" style="rounded=1;whiteSpace=wrap;html=1;fillColor=#ffe6cc;strokeColor=#d79b00;gradientColor=#FFB570;gradientDirection=north;glass=1;shadow=1;" vertex="1" parent="1">
          <mxGeometry x="1080" y="165" width="60" height="220" as="geometry" />
        </mxCell>
        <mxCell id="mVk74JgCXZxDBSlldJFi-100" style="edgeStyle=orthogonalEdgeStyle;rounded=0;orthogonalLoop=1;jettySize=auto;html=1;exitX=1;exitY=0.5;exitDx=0;exitDy=0;entryX=0;entryY=0.5;entryDx=0;entryDy=0;" edge="1" parent="1" source="mVk74JgCXZxDBSlldJFi-90" target="mVk74JgCXZxDBSlldJFi-93">
          <mxGeometry relative="1" as="geometry" />
        </mxCell>
        <mxCell id="mVk74JgCXZxDBSlldJFi-90" value="fully connected layer" style="rounded=1;whiteSpace=wrap;html=1;fillColor=#dae8fc;strokeColor=#6c8ebf;glass=1;shadow=1;gradientColor=#7EA6E0;" vertex="1" parent="1">
          <mxGeometry x="1254" y="165" width="60" height="105" as="geometry" />
        </mxCell>
        <mxCell id="mVk74JgCXZxDBSlldJFi-92" value="fully connected layer" style="rounded=1;whiteSpace=wrap;html=1;fillColor=#dae8fc;strokeColor=#6c8ebf;glass=1;shadow=1;gradientColor=#7EA6E0;" vertex="1" parent="1">
          <mxGeometry x="1254" y="280" width="60" height="105" as="geometry" />
        </mxCell>
        <mxCell id="mVk74JgCXZxDBSlldJFi-103" value="" style="edgeStyle=orthogonalEdgeStyle;rounded=0;orthogonalLoop=1;jettySize=auto;html=1;" edge="1" parent="1" source="mVk74JgCXZxDBSlldJFi-93" target="mVk74JgCXZxDBSlldJFi-99">
          <mxGeometry relative="1" as="geometry" />
        </mxCell>
        <mxCell id="mVk74JgCXZxDBSlldJFi-93" value="mu" style="rounded=1;whiteSpace=wrap;html=1;fillColor=#e1d5e7;strokeColor=#9673a6;gradientColor=#A680B8;glass=1;shadow=1;gradientDirection=radial;" vertex="1" parent="1">
          <mxGeometry x="1330" y="192.5" width="50" height="50" as="geometry" />
        </mxCell>
        <mxCell id="mVk74JgCXZxDBSlldJFi-102" value="" style="edgeStyle=orthogonalEdgeStyle;rounded=0;orthogonalLoop=1;jettySize=auto;html=1;" edge="1" parent="1" source="mVk74JgCXZxDBSlldJFi-94" target="mVk74JgCXZxDBSlldJFi-99">
          <mxGeometry relative="1" as="geometry" />
        </mxCell>
        <mxCell id="mVk74JgCXZxDBSlldJFi-94" value="sigma" style="rounded=1;whiteSpace=wrap;html=1;fillColor=#e1d5e7;strokeColor=#9673a6;gradientColor=#A680B8;glass=1;shadow=1;gradientDirection=radial;" vertex="1" parent="1">
          <mxGeometry x="1330" y="310" width="50" height="50" as="geometry" />
        </mxCell>
        <mxCell id="mVk74JgCXZxDBSlldJFi-95" value="" style="edgeStyle=orthogonalEdgeStyle;rounded=0;orthogonalLoop=1;jettySize=auto;html=1;" edge="1" parent="1" source="mVk74JgCXZxDBSlldJFi-88" target="mVk74JgCXZxDBSlldJFi-98">
          <mxGeometry relative="1" as="geometry">
            <mxPoint x="1140" y="275" as="sourcePoint" />
            <mxPoint x="1240" y="333" as="targetPoint" />
          </mxGeometry>
        </mxCell>
        <mxCell id="mVk74JgCXZxDBSlldJFi-96" style="rounded=0;orthogonalLoop=1;jettySize=auto;html=1;exitX=1;exitY=0.25;exitDx=0;exitDy=0;entryX=0;entryY=0.5;entryDx=0;entryDy=0;" edge="1" parent="1" source="mVk74JgCXZxDBSlldJFi-98" target="mVk74JgCXZxDBSlldJFi-90">
          <mxGeometry relative="1" as="geometry" />
        </mxCell>
        <mxCell id="mVk74JgCXZxDBSlldJFi-97" style="rounded=0;orthogonalLoop=1;jettySize=auto;html=1;entryX=0;entryY=0.5;entryDx=0;entryDy=0;exitX=1;exitY=0.75;exitDx=0;exitDy=0;" edge="1" parent="1" source="mVk74JgCXZxDBSlldJFi-98" target="mVk74JgCXZxDBSlldJFi-92">
          <mxGeometry relative="1" as="geometry">
            <mxPoint x="1254" y="330" as="sourcePoint" />
          </mxGeometry>
        </mxCell>
        <mxCell id="mVk74JgCXZxDBSlldJFi-98" value="&lt;span style=&quot;caret-color: rgb(0, 0, 0); color: rgb(0, 0, 0); font-family: Helvetica; font-size: 12px; font-style: normal; font-variant-caps: normal; font-weight: 400; letter-spacing: normal; text-align: center; text-indent: 0px; text-transform: none; word-spacing: 0px; -webkit-text-stroke-width: 0px; text-decoration: none; float: none; display: inline !important;&quot;&gt;Conv layer&lt;/span&gt;&lt;br style=&quot;border-color: var(--border-color); caret-color: rgb(0, 0, 0); color: rgb(0, 0, 0); font-family: Helvetica; font-size: 12px; font-style: normal; font-variant-caps: normal; font-weight: 400; letter-spacing: normal; text-align: center; text-indent: 0px; text-transform: none; word-spacing: 0px; -webkit-text-stroke-width: 0px; text-decoration: none;&quot;&gt;&lt;span style=&quot;caret-color: rgb(0, 0, 0); color: rgb(0, 0, 0); font-family: Helvetica; font-size: 12px; font-style: normal; font-variant-caps: normal; font-weight: 400; letter-spacing: normal; text-align: center; text-indent: 0px; text-transform: none; word-spacing: 0px; -webkit-text-stroke-width: 0px; text-decoration: none; float: none; display: inline !important;&quot;&gt;batch norm&lt;/span&gt;&lt;br style=&quot;border-color: var(--border-color); caret-color: rgb(0, 0, 0); color: rgb(0, 0, 0); font-family: Helvetica; font-size: 12px; font-style: normal; font-variant-caps: normal; font-weight: 400; letter-spacing: normal; text-align: center; text-indent: 0px; text-transform: none; word-spacing: 0px; -webkit-text-stroke-width: 0px; text-decoration: none;&quot;&gt;&lt;span style=&quot;caret-color: rgb(0, 0, 0); color: rgb(0, 0, 0); font-family: Helvetica; font-size: 12px; font-style: normal; font-variant-caps: normal; font-weight: 400; letter-spacing: normal; text-align: center; text-indent: 0px; text-transform: none; word-spacing: 0px; -webkit-text-stroke-width: 0px; text-decoration: none; float: none; display: inline !important;&quot;&gt;Leaky ReLU&lt;/span&gt;" style="rounded=1;whiteSpace=wrap;html=1;fillColor=#ffe6cc;strokeColor=#d79b00;gradientColor=#FFB570;gradientDirection=north;glass=1;shadow=1;" vertex="1" parent="1">
          <mxGeometry x="1160" y="165" width="60" height="220" as="geometry" />
        </mxCell>
        <mxCell id="mVk74JgCXZxDBSlldJFi-99" value="z&#39;" style="rounded=1;whiteSpace=wrap;html=1;fillColor=default;strokeColor=default;fontColor=#333333;shadow=1;gradientColor=#B3B3B3;gradientDirection=radial;" vertex="1" parent="1">
          <mxGeometry x="1390" y="250" width="50" height="50" as="geometry" />
        </mxCell>
        <mxCell id="mVk74JgCXZxDBSlldJFi-115" value="real / fake" style="ellipse;whiteSpace=wrap;html=1;fillColor=default;strokeColor=default;fontColor=#333333;shadow=1;perimeterSpacing=1;gradientColor=#B3B3B3;gradientDirection=radial;" vertex="1" parent="1">
          <mxGeometry x="780" y="625" width="80" height="80" as="geometry" />
        </mxCell>
        <mxCell id="mVk74JgCXZxDBSlldJFi-120" value="Enoder&amp;nbsp;" style="text;html=1;align=center;verticalAlign=middle;resizable=0;points=[];autosize=1;strokeColor=none;fillColor=none;fontSize=12;fontFamily=Helvetica;fontColor=default;" vertex="1" parent="1">
          <mxGeometry x="210" y="90" width="70" height="30" as="geometry" />
        </mxCell>
        <mxCell id="mVk74JgCXZxDBSlldJFi-121" value="Decoder" style="text;html=1;align=center;verticalAlign=middle;resizable=0;points=[];autosize=1;strokeColor=none;fillColor=none;fontSize=12;fontFamily=Helvetica;fontColor=default;" vertex="1" parent="1">
          <mxGeometry x="700" y="90" width="70" height="30" as="geometry" />
        </mxCell>
        <mxCell id="mVk74JgCXZxDBSlldJFi-122" value="Second Encoder" style="text;html=1;align=center;verticalAlign=middle;resizable=0;points=[];autosize=1;strokeColor=none;fillColor=none;fontSize=12;fontFamily=Helvetica;fontColor=default;" vertex="1" parent="1">
          <mxGeometry x="1070" y="90" width="110" height="30" as="geometry" />
        </mxCell>
        <mxCell id="mVk74JgCXZxDBSlldJFi-123" value="Discriminator" style="text;html=1;align=center;verticalAlign=middle;resizable=0;points=[];autosize=1;strokeColor=none;fillColor=none;fontSize=12;fontFamily=Helvetica;fontColor=default;" vertex="1" parent="1">
          <mxGeometry x="520" y="495" width="90" height="30" as="geometry" />
        </mxCell>
        <mxCell id="mVk74JgCXZxDBSlldJFi-124" value="VAE Network / Generator" style="text;html=1;align=center;verticalAlign=middle;resizable=0;points=[];autosize=1;strokeColor=none;fillColor=none;fontSize=12;fontFamily=Helvetica;fontColor=default;" vertex="1" parent="1">
          <mxGeometry x="70" y="60" width="160" height="30" as="geometry" />
        </mxCell>
        <mxCell id="mVk74JgCXZxDBSlldJFi-127" value="VAE-GAN network" style="text;html=1;align=center;verticalAlign=middle;resizable=0;points=[];autosize=1;strokeColor=none;fillColor=none;fontSize=12;fontFamily=Helvetica;fontColor=default;" vertex="1" parent="1">
          <mxGeometry x="70" y="20" width="120" height="30" as="geometry" />
        </mxCell>
        <mxCell id="mVk74JgCXZxDBSlldJFi-133" value="Ganomaly network" style="text;html=1;align=center;verticalAlign=middle;resizable=0;points=[];autosize=1;strokeColor=none;fillColor=none;fontSize=12;fontFamily=Helvetica;fontColor=default;" vertex="1" parent="1">
          <mxGeometry x="70" y="-10" width="120" height="30" as="geometry" />
        </mxCell>
        <mxCell id="mVk74JgCXZxDBSlldJFi-134" value="" style="shape=flexArrow;endArrow=classic;html=1;rounded=0;fontFamily=Helvetica;fontSize=12;fontColor=default;" edge="1" parent="1">
          <mxGeometry width="50" height="50" relative="1" as="geometry">
            <mxPoint x="690" y="590" as="sourcePoint" />
            <mxPoint x="740" y="540" as="targetPoint" />
          </mxGeometry>
        </mxCell>
      </root>
    </mxGraphModel>
  </diagram>
</mxfile>
